<?xml version="1.0" encoding="UTF-8"?>
<svg xmlns="http://www.w3.org/2000/svg" xmlns:xlink="http://www.w3.org/1999/xlink" width="97px" height="32px" viewBox="0 0 97 32" version="1.1">
<defs>
<clipPath id="clip1">
  <path d="M 1.402344 0 L 95.277344 0 L 95.277344 30.964844 L 1.402344 30.964844 Z M 1.402344 0 "/>
</clipPath>
<clipPath id="clip2">
  <path d="M 2.792969 10.566406 L 17.308594 10.566406 L 17.308594 19 L 2.792969 19 Z M 2.792969 10.566406 "/>
</clipPath>
<clipPath id="clip3">
  <path d="M 79.4375 10.566406 L 93.953125 10.566406 L 93.953125 19 L 79.4375 19 Z M 79.4375 10.566406 "/>
</clipPath>
</defs>
<g id="surface1">
<g clip-path="url(#clip1)" clip-rule="nonzero">
<path style=" stroke:none;fill-rule:nonzero;fill:rgb(100%,100%,100%);fill-opacity:1;" d="M 1.402344 0 L 95.277344 0 L 95.277344 30.964844 L 1.402344 30.964844 Z M 1.402344 0 "/>
<path style=" stroke:none;fill-rule:nonzero;fill:rgb(100%,100%,100%);fill-opacity:1;" d="M 1.402344 0 L 95.277344 0 L 95.277344 30.964844 L 1.402344 30.964844 Z M 1.402344 0 "/>
</g>
<path style=" stroke:none;fill-rule:nonzero;fill:rgb(3.921569%,7.450981%,11.764706%);fill-opacity:1;" d="M 21.867188 13.40625 C 21.867188 13.375 21.871094 13.351562 21.886719 13.324219 C 21.914062 13.304688 21.949219 13.292969 21.992188 13.292969 L 23.410156 13.292969 C 23.449219 13.292969 23.476562 13.304688 23.492188 13.324219 C 23.519531 13.351562 23.535156 13.375 23.535156 13.40625 L 23.535156 18.191406 C 23.535156 18.226562 23.519531 18.253906 23.492188 18.273438 C 23.476562 18.289062 23.449219 18.292969 23.410156 18.292969 L 21.992188 18.292969 C 21.949219 18.292969 21.914062 18.289062 21.886719 18.273438 C 21.871094 18.253906 21.867188 18.226562 21.867188 18.191406 L 21.867188 16.390625 C 21.867188 16.371094 21.847656 16.359375 21.804688 16.359375 L 20.910156 16.359375 C 20.878906 16.359375 20.867188 16.371094 20.867188 16.390625 L 20.867188 18.191406 C 20.867188 18.226562 20.851562 18.253906 20.824219 18.273438 C 20.792969 18.289062 20.761719 18.292969 20.722656 18.292969 L 19.324219 18.292969 C 19.285156 18.292969 19.246094 18.289062 19.222656 18.273438 C 19.191406 18.253906 19.179688 18.226562 19.179688 18.191406 L 19.179688 13.40625 C 19.179688 13.375 19.191406 13.351562 19.222656 13.324219 C 19.246094 13.304688 19.285156 13.292969 19.324219 13.292969 L 20.722656 13.292969 C 20.761719 13.292969 20.792969 13.304688 20.824219 13.324219 C 20.851562 13.351562 20.867188 13.375 20.867188 13.40625 L 20.867188 15.15625 C 20.867188 15.191406 20.878906 15.207031 20.910156 15.207031 L 21.804688 15.207031 C 21.847656 15.207031 21.867188 15.191406 21.867188 15.15625 Z M 21.867188 13.40625 "/>
<path style=" stroke:none;fill-rule:nonzero;fill:rgb(3.921569%,7.450981%,11.764706%);fill-opacity:1;" d="M 26.285156 18.359375 C 25.835938 18.359375 25.441406 18.292969 25.097656 18.15625 C 24.761719 18.015625 24.503906 17.816406 24.324219 17.558594 C 24.144531 17.292969 24.054688 16.988281 24.054688 16.640625 L 24.054688 14.941406 C 24.054688 14.601562 24.144531 14.300781 24.324219 14.042969 C 24.503906 13.789062 24.761719 13.589844 25.097656 13.457031 C 25.441406 13.316406 25.835938 13.242188 26.285156 13.242188 C 26.726562 13.242188 27.117188 13.316406 27.449219 13.457031 C 27.792969 13.589844 28.058594 13.789062 28.242188 14.042969 C 28.433594 14.300781 28.535156 14.601562 28.535156 14.941406 L 28.535156 16.640625 C 28.535156 16.988281 28.433594 17.292969 28.242188 17.558594 C 28.058594 17.816406 27.792969 18.015625 27.449219 18.15625 C 27.117188 18.292969 26.726562 18.359375 26.285156 18.359375 Z M 26.285156 17.207031 C 26.460938 17.207031 26.601562 17.167969 26.699219 17.074219 C 26.808594 16.976562 26.867188 16.851562 26.867188 16.691406 L 26.867188 14.90625 C 26.867188 14.753906 26.808594 14.632812 26.699219 14.542969 C 26.601562 14.441406 26.460938 14.390625 26.285156 14.390625 C 26.117188 14.390625 25.976562 14.441406 25.867188 14.542969 C 25.769531 14.632812 25.722656 14.753906 25.722656 14.90625 L 25.722656 16.691406 C 25.722656 16.851562 25.769531 16.976562 25.867188 17.074219 C 25.976562 17.167969 26.117188 17.207031 26.285156 17.207031 Z M 26.285156 17.207031 "/>
<path style=" stroke:none;fill-rule:nonzero;fill:rgb(3.921569%,7.450981%,11.764706%);fill-opacity:1;" d="M 33.382812 13.292969 C 33.421875 13.292969 33.449219 13.304688 33.464844 13.324219 C 33.492188 13.351562 33.507812 13.375 33.507812 13.40625 L 33.507812 14.339844 C 33.507812 14.375 33.492188 14.402344 33.464844 14.425781 C 33.449219 14.4375 33.421875 14.441406 33.382812 14.441406 L 32.109375 14.441406 C 32.078125 14.441406 32.070312 14.457031 32.070312 14.492188 L 32.070312 18.191406 C 32.070312 18.226562 32.054688 18.253906 32.027344 18.273438 C 31.996094 18.289062 31.964844 18.292969 31.921875 18.292969 L 30.527344 18.292969 C 30.484375 18.292969 30.449219 18.289062 30.421875 18.273438 C 30.390625 18.253906 30.382812 18.226562 30.382812 18.191406 L 30.382812 14.492188 C 30.382812 14.457031 30.367188 14.441406 30.339844 14.441406 L 29.089844 14.441406 C 29.046875 14.441406 29.011719 14.4375 28.984375 14.425781 C 28.96875 14.402344 28.964844 14.375 28.964844 14.339844 L 28.964844 13.40625 C 28.964844 13.375 28.96875 13.351562 28.984375 13.324219 C 29.011719 13.304688 29.046875 13.292969 29.089844 13.292969 Z M 33.382812 13.292969 "/>
<path style=" stroke:none;fill-rule:nonzero;fill:rgb(3.921569%,7.450981%,11.764706%);fill-opacity:1;" d="M 38.050781 14.339844 C 38.050781 14.375 38.035156 14.402344 38.007812 14.425781 C 37.992188 14.4375 37.96875 14.441406 37.925781 14.441406 L 35.738281 14.441406 C 35.707031 14.441406 35.695312 14.457031 35.695312 14.492188 L 35.695312 15.15625 C 35.695312 15.191406 35.707031 15.207031 35.738281 15.207031 L 37.007812 15.207031 C 37.035156 15.207031 37.0625 15.21875 37.09375 15.242188 C 37.117188 15.253906 37.132812 15.273438 37.132812 15.308594 L 37.132812 16.242188 C 37.132812 16.273438 37.117188 16.304688 37.09375 16.324219 C 37.0625 16.335938 37.035156 16.339844 37.007812 16.339844 L 35.738281 16.339844 C 35.707031 16.339844 35.695312 16.359375 35.695312 16.390625 L 35.695312 17.109375 C 35.695312 17.132812 35.707031 17.140625 35.738281 17.140625 L 37.925781 17.140625 C 37.96875 17.140625 37.992188 17.152344 38.007812 17.175781 C 38.035156 17.199219 38.050781 17.226562 38.050781 17.257812 L 38.050781 18.191406 C 38.050781 18.226562 38.035156 18.253906 38.007812 18.273438 C 37.992188 18.289062 37.96875 18.292969 37.925781 18.292969 L 34.15625 18.292969 C 34.113281 18.292969 34.078125 18.289062 34.050781 18.273438 C 34.019531 18.253906 34.007812 18.226562 34.007812 18.191406 L 34.007812 13.40625 C 34.007812 13.375 34.019531 13.351562 34.050781 13.324219 C 34.078125 13.304688 34.113281 13.292969 34.15625 13.292969 L 37.925781 13.292969 C 37.96875 13.292969 37.992188 13.304688 38.007812 13.324219 C 38.035156 13.351562 38.050781 13.375 38.050781 13.40625 Z M 38.050781 14.339844 "/>
<path style=" stroke:none;fill-rule:nonzero;fill:rgb(3.921569%,7.450981%,11.764706%);fill-opacity:1;" d="M 38.71875 18.292969 C 38.675781 18.292969 38.640625 18.289062 38.613281 18.273438 C 38.582031 18.253906 38.570312 18.226562 38.570312 18.191406 L 38.570312 13.40625 C 38.570312 13.375 38.582031 13.351562 38.613281 13.324219 C 38.640625 13.304688 38.675781 13.292969 38.71875 13.292969 L 40.113281 13.292969 C 40.15625 13.292969 40.1875 13.304688 40.21875 13.324219 C 40.242188 13.351562 40.257812 13.375 40.257812 13.40625 L 40.257812 17.109375 C 40.257812 17.132812 40.269531 17.140625 40.300781 17.140625 L 42.550781 17.140625 C 42.59375 17.140625 42.617188 17.152344 42.632812 17.175781 C 42.660156 17.199219 42.675781 17.226562 42.675781 17.257812 L 42.675781 18.191406 C 42.675781 18.226562 42.660156 18.253906 42.632812 18.273438 C 42.617188 18.289062 42.59375 18.292969 42.550781 18.292969 Z M 38.71875 18.292969 "/>
<path style=" stroke:none;fill-rule:nonzero;fill:rgb(3.921569%,7.450981%,11.764706%);fill-opacity:1;" d="M 47.40625 13.292969 C 47.789062 13.292969 48.132812 13.367188 48.425781 13.507812 C 48.726562 13.640625 48.96875 13.832031 49.132812 14.074219 C 49.300781 14.320312 49.382812 14.605469 49.382812 14.925781 C 49.382812 15.238281 49.300781 15.507812 49.132812 15.742188 C 48.976562 15.976562 48.75 16.15625 48.445312 16.292969 C 48.140625 16.425781 47.800781 16.492188 47.425781 16.492188 L 46.695312 16.492188 C 46.65625 16.492188 46.632812 16.503906 46.632812 16.523438 L 46.632812 18.191406 C 46.632812 18.226562 46.617188 18.253906 46.59375 18.273438 C 46.578125 18.289062 46.550781 18.292969 46.507812 18.292969 L 45.09375 18.292969 C 45.050781 18.292969 45.015625 18.289062 44.988281 18.273438 C 44.972656 18.253906 44.96875 18.226562 44.96875 18.191406 L 44.96875 13.40625 C 44.96875 13.375 44.972656 13.351562 44.988281 13.324219 C 45.015625 13.304688 45.050781 13.292969 45.09375 13.292969 Z M 47.113281 15.441406 C 47.289062 15.441406 47.4375 15.398438 47.550781 15.308594 C 47.660156 15.21875 47.71875 15.101562 47.71875 14.941406 C 47.71875 14.789062 47.660156 14.667969 47.550781 14.574219 C 47.4375 14.488281 47.289062 14.441406 47.113281 14.441406 L 46.695312 14.441406 C 46.65625 14.441406 46.632812 14.457031 46.632812 14.492188 L 46.632812 15.390625 C 46.632812 15.425781 46.65625 15.441406 46.695312 15.441406 Z M 47.113281 15.441406 "/>
<path style=" stroke:none;fill-rule:nonzero;fill:rgb(3.921569%,7.450981%,11.764706%);fill-opacity:1;" d="M 52.730469 18.292969 C 52.644531 18.292969 52.589844 18.265625 52.5625 18.207031 L 51.8125 16.40625 C 51.796875 16.386719 51.777344 16.375 51.75 16.375 L 51.582031 16.375 C 51.550781 16.375 51.542969 16.386719 51.542969 16.40625 L 51.542969 18.191406 C 51.542969 18.226562 51.527344 18.253906 51.5 18.273438 C 51.46875 18.289062 51.4375 18.292969 51.394531 18.292969 L 50 18.292969 C 49.957031 18.292969 49.921875 18.289062 49.894531 18.273438 C 49.863281 18.253906 49.855469 18.226562 49.855469 18.191406 L 49.855469 13.40625 C 49.855469 13.375 49.863281 13.351562 49.894531 13.324219 C 49.921875 13.304688 49.957031 13.292969 50 13.292969 L 52.355469 13.292969 C 52.730469 13.292969 53.0625 13.359375 53.355469 13.492188 C 53.644531 13.625 53.863281 13.816406 54.019531 14.058594 C 54.1875 14.304688 54.269531 14.582031 54.269531 14.890625 C 54.269531 15.183594 54.191406 15.4375 54.042969 15.65625 C 53.886719 15.882812 53.671875 16.054688 53.394531 16.175781 C 53.378906 16.1875 53.375 16.203125 53.375 16.226562 L 54.292969 18.175781 C 54.300781 18.1875 54.3125 18.203125 54.3125 18.226562 C 54.3125 18.269531 54.269531 18.292969 54.1875 18.292969 Z M 51.582031 14.441406 C 51.550781 14.441406 51.542969 14.457031 51.542969 14.492188 L 51.542969 15.308594 C 51.542969 15.339844 51.550781 15.359375 51.582031 15.359375 L 52.0625 15.359375 C 52.214844 15.359375 52.339844 15.320312 52.4375 15.242188 C 52.546875 15.152344 52.605469 15.042969 52.605469 14.90625 C 52.605469 14.765625 52.550781 14.652344 52.457031 14.574219 C 52.359375 14.488281 52.230469 14.441406 52.0625 14.441406 Z M 51.582031 14.441406 "/>
<path style=" stroke:none;fill-rule:nonzero;fill:rgb(3.921569%,7.450981%,11.764706%);fill-opacity:1;" d="M 58.871094 14.339844 C 58.871094 14.375 58.855469 14.402344 58.828125 14.425781 C 58.8125 14.4375 58.785156 14.441406 58.746094 14.441406 L 56.558594 14.441406 C 56.527344 14.441406 56.515625 14.457031 56.515625 14.492188 L 56.515625 15.15625 C 56.515625 15.191406 56.527344 15.207031 56.558594 15.207031 L 57.828125 15.207031 C 57.855469 15.207031 57.878906 15.21875 57.910156 15.242188 C 57.9375 15.253906 57.953125 15.273438 57.953125 15.308594 L 57.953125 16.242188 C 57.953125 16.273438 57.9375 16.304688 57.910156 16.324219 C 57.878906 16.335938 57.855469 16.339844 57.828125 16.339844 L 56.558594 16.339844 C 56.527344 16.339844 56.515625 16.359375 56.515625 16.390625 L 56.515625 17.109375 C 56.515625 17.132812 56.527344 17.140625 56.558594 17.140625 L 58.746094 17.140625 C 58.785156 17.140625 58.8125 17.152344 58.828125 17.175781 C 58.855469 17.199219 58.871094 17.226562 58.871094 17.257812 L 58.871094 18.191406 C 58.871094 18.226562 58.855469 18.253906 58.828125 18.273438 C 58.8125 18.289062 58.785156 18.292969 58.746094 18.292969 L 54.972656 18.292969 C 54.933594 18.292969 54.894531 18.289062 54.871094 18.273438 C 54.839844 18.253906 54.828125 18.226562 54.828125 18.191406 L 54.828125 13.40625 C 54.828125 13.375 54.839844 13.351562 54.871094 13.324219 C 54.894531 13.304688 54.933594 13.292969 54.972656 13.292969 L 58.746094 13.292969 C 58.785156 13.292969 58.8125 13.304688 58.828125 13.324219 C 58.855469 13.351562 58.871094 13.375 58.871094 13.40625 Z M 58.871094 14.339844 "/>
<path style=" stroke:none;fill-rule:nonzero;fill:rgb(3.921569%,7.450981%,11.764706%);fill-opacity:1;" d="M 62.847656 13.375 C 62.875 13.320312 62.933594 13.292969 63.015625 13.292969 L 64.410156 13.292969 C 64.453125 13.292969 64.480469 13.304688 64.496094 13.324219 C 64.519531 13.351562 64.535156 13.375 64.535156 13.40625 L 64.535156 18.191406 C 64.535156 18.226562 64.519531 18.253906 64.496094 18.273438 C 64.480469 18.289062 64.453125 18.292969 64.410156 18.292969 L 62.996094 18.292969 C 62.953125 18.292969 62.917969 18.289062 62.890625 18.273438 C 62.875 18.253906 62.871094 18.226562 62.871094 18.191406 L 62.871094 15.441406 C 62.871094 15.433594 62.855469 15.425781 62.828125 15.425781 C 62.8125 15.417969 62.808594 15.417969 62.808594 15.425781 L 62.222656 16.191406 C 62.191406 16.238281 62.144531 16.257812 62.078125 16.257812 L 61.828125 16.257812 C 61.753906 16.257812 61.707031 16.238281 61.683594 16.191406 L 61.097656 15.425781 C 61.082031 15.402344 61.066406 15.398438 61.058594 15.40625 C 61.042969 15.40625 61.035156 15.421875 61.035156 15.441406 L 61.035156 18.191406 C 61.035156 18.226562 61.019531 18.253906 60.996094 18.273438 C 60.980469 18.289062 60.953125 18.292969 60.910156 18.292969 L 59.496094 18.292969 C 59.453125 18.292969 59.417969 18.289062 59.390625 18.273438 C 59.375 18.253906 59.371094 18.226562 59.371094 18.191406 L 59.371094 13.40625 C 59.371094 13.375 59.375 13.351562 59.390625 13.324219 C 59.417969 13.304688 59.453125 13.292969 59.496094 13.292969 L 60.890625 13.292969 C 60.957031 13.292969 61.015625 13.320312 61.058594 13.375 L 61.933594 14.558594 C 61.941406 14.570312 61.957031 14.574219 61.972656 14.574219 C 61.984375 14.574219 61.996094 14.570312 61.996094 14.558594 Z M 62.847656 13.375 "/>
<path style=" stroke:none;fill-rule:nonzero;fill:rgb(3.921569%,7.450981%,11.764706%);fill-opacity:1;" d="M 65.285156 18.292969 C 65.242188 18.292969 65.207031 18.289062 65.179688 18.273438 C 65.148438 18.253906 65.136719 18.226562 65.136719 18.191406 L 65.136719 13.40625 C 65.136719 13.375 65.148438 13.351562 65.179688 13.324219 C 65.207031 13.304688 65.242188 13.292969 65.285156 13.292969 L 66.679688 13.292969 C 66.722656 13.292969 66.753906 13.304688 66.785156 13.324219 C 66.808594 13.351562 66.824219 13.375 66.824219 13.40625 L 66.824219 18.191406 C 66.824219 18.226562 66.808594 18.253906 66.785156 18.273438 C 66.753906 18.289062 66.722656 18.292969 66.679688 18.292969 Z M 65.285156 18.292969 "/>
<path style=" stroke:none;fill-rule:nonzero;fill:rgb(3.921569%,7.450981%,11.764706%);fill-opacity:1;" d="M 69.605469 18.339844 C 69.15625 18.339844 68.769531 18.273438 68.4375 18.140625 C 68.113281 18.007812 67.863281 17.816406 67.6875 17.558594 C 67.503906 17.304688 67.417969 17.007812 67.417969 16.675781 L 67.417969 13.40625 C 67.417969 13.375 67.421875 13.351562 67.4375 13.324219 C 67.464844 13.304688 67.5 13.292969 67.542969 13.292969 L 68.957031 13.292969 C 69 13.292969 69.027344 13.304688 69.042969 13.324219 C 69.066406 13.351562 69.082031 13.375 69.082031 13.40625 L 69.082031 16.742188 C 69.082031 16.886719 69.128906 17.003906 69.230469 17.089844 C 69.324219 17.171875 69.449219 17.207031 69.605469 17.207031 C 69.738281 17.207031 69.859375 17.171875 69.957031 17.089844 C 70.050781 17.003906 70.105469 16.886719 70.105469 16.742188 L 70.105469 13.40625 C 70.105469 13.375 70.113281 13.351562 70.144531 13.324219 C 70.171875 13.304688 70.207031 13.292969 70.25 13.292969 L 71.644531 13.292969 C 71.6875 13.292969 71.71875 13.304688 71.75 13.324219 C 71.777344 13.351562 71.792969 13.375 71.792969 13.40625 L 71.792969 16.675781 C 71.792969 17.007812 71.691406 17.304688 71.5 17.558594 C 71.316406 17.816406 71.0625 18.007812 70.730469 18.140625 C 70.40625 18.273438 70.03125 18.339844 69.605469 18.339844 Z M 69.605469 18.339844 "/>
<path style=" stroke:none;fill-rule:nonzero;fill:rgb(3.921569%,7.450981%,11.764706%);fill-opacity:1;" d="M 75.832031 13.375 C 75.859375 13.320312 75.917969 13.292969 76 13.292969 L 77.394531 13.292969 C 77.4375 13.292969 77.464844 13.304688 77.480469 13.324219 C 77.503906 13.351562 77.519531 13.375 77.519531 13.40625 L 77.519531 18.191406 C 77.519531 18.226562 77.503906 18.253906 77.480469 18.273438 C 77.464844 18.289062 77.4375 18.292969 77.394531 18.292969 L 75.980469 18.292969 C 75.9375 18.292969 75.902344 18.289062 75.875 18.273438 C 75.859375 18.253906 75.855469 18.226562 75.855469 18.191406 L 75.855469 15.441406 C 75.855469 15.433594 75.839844 15.425781 75.8125 15.425781 C 75.796875 15.417969 75.792969 15.417969 75.792969 15.425781 L 75.207031 16.191406 C 75.175781 16.238281 75.128906 16.257812 75.0625 16.257812 L 74.8125 16.257812 C 74.738281 16.257812 74.691406 16.238281 74.667969 16.191406 L 74.082031 15.425781 C 74.066406 15.402344 74.050781 15.398438 74.042969 15.40625 C 74.027344 15.40625 74.019531 15.421875 74.019531 15.441406 L 74.019531 18.191406 C 74.019531 18.226562 74.003906 18.253906 73.980469 18.273438 C 73.964844 18.289062 73.9375 18.292969 73.894531 18.292969 L 72.480469 18.292969 C 72.4375 18.292969 72.402344 18.289062 72.375 18.273438 C 72.359375 18.253906 72.355469 18.226562 72.355469 18.191406 L 72.355469 13.40625 C 72.355469 13.375 72.359375 13.351562 72.375 13.324219 C 72.402344 13.304688 72.4375 13.292969 72.480469 13.292969 L 73.875 13.292969 C 73.941406 13.292969 74 13.320312 74.042969 13.375 L 74.917969 14.558594 C 74.925781 14.570312 74.941406 14.574219 74.957031 14.574219 C 74.96875 14.574219 74.980469 14.570312 74.980469 14.558594 Z M 75.832031 13.375 "/>
<g clip-path="url(#clip2)" clip-rule="nonzero">
<path style=" stroke:none;fill-rule:evenodd;fill:rgb(98.039216%,71.372551%,5.098039%);fill-opacity:1;" d="M 10.082031 12.195312 C 10.082031 12.195312 9.5625 12.847656 9.488281 14.0625 C 9.417969 15.269531 10.082031 15.886719 10.082031 15.886719 C 10.082031 15.886719 10.746094 15.269531 10.671875 14.0625 C 10.59375 12.847656 10.082031 12.195312 10.082031 12.195312 Z M 11.050781 16.589844 C 11.652344 14.902344 13.410156 14.171875 15.597656 14.300781 C 15.597656 14.300781 15.199219 16.292969 12.441406 16.351562 C 12.441406 16.351562 13.734375 15.761719 14.011719 15.117188 C 12.578125 15.285156 11.714844 15.964844 11.050781 16.589844 Z M 10.082031 16.484375 C 10.082031 16.484375 8.515625 15.230469 8.792969 13.1875 C 9.0625 11.140625 10.082031 10.566406 10.082031 10.566406 C 10.082031 10.566406 11.09375 11.140625 11.363281 13.1875 C 11.640625 15.230469 10.082031 16.484375 10.082031 16.484375 Z M 9.105469 16.589844 C 8.503906 14.902344 6.746094 14.171875 4.558594 14.300781 C 4.558594 14.300781 4.957031 16.292969 7.714844 16.351562 C 7.714844 16.351562 6.421875 15.761719 6.144531 15.117188 C 7.578125 15.285156 8.441406 15.964844 9.105469 16.589844 Z M 4.621094 18.105469 C 4.808594 17.9375 5.03125 17.808594 5.253906 17.710938 C 6.984375 16.988281 8.933594 17.863281 10.078125 18.960938 C 11.222656 17.863281 13.171875 16.988281 14.902344 17.710938 C 15.125 17.808594 15.347656 17.9375 15.535156 18.105469 C 14.371094 18.394531 13.40625 18.253906 12.480469 17.867188 C 12.277344 17.925781 12.015625 18.027344 11.761719 18.191406 C 12.800781 18.671875 13.5625 18.929688 15.171875 18.777344 C 16.425781 18.664062 17.363281 18.226562 17.363281 18.226562 C 15.09375 16.164062 12.832031 16.667969 11.449219 17.335938 C 11.0625 17.148438 10.402344 16.949219 10.078125 16.988281 C 9.753906 16.949219 9.097656 17.148438 8.714844 17.335938 C 7.324219 16.667969 5.0625 16.164062 2.792969 18.226562 C 2.792969 18.226562 3.730469 18.664062 4.984375 18.777344 C 6.59375 18.929688 7.355469 18.671875 8.394531 18.191406 C 8.140625 18.027344 7.878906 17.925781 7.675781 17.867188 C 6.753906 18.253906 5.785156 18.394531 4.621094 18.105469 Z M 10.753906 17.726562 C 10.328125 18 10.078125 18.226562 10.078125 18.226562 C 10.078125 18.226562 9.828125 18 9.40625 17.726562 C 9.753906 17.566406 10.078125 17.507812 10.078125 17.507812 C 10.078125 17.507812 10.402344 17.566406 10.753906 17.726562 Z M 10.753906 17.726562 "/>
</g>
<g clip-path="url(#clip3)" clip-rule="nonzero">
<path style=" stroke:none;fill-rule:evenodd;fill:rgb(98.039216%,71.372551%,5.098039%);fill-opacity:1;" d="M 86.722656 12.195312 C 86.722656 12.195312 86.207031 12.847656 86.128906 14.0625 C 86.0625 15.269531 86.722656 15.886719 86.722656 15.886719 C 86.722656 15.886719 87.390625 15.269531 87.316406 14.0625 C 87.238281 12.847656 86.722656 12.195312 86.722656 12.195312 Z M 87.699219 16.589844 C 88.296875 14.902344 90.058594 14.171875 92.246094 14.300781 C 92.246094 14.300781 91.84375 16.292969 89.089844 16.351562 C 89.089844 16.351562 90.378906 15.761719 90.65625 15.117188 C 89.222656 15.285156 88.359375 15.964844 87.699219 16.589844 Z M 86.722656 16.484375 C 86.722656 16.484375 85.160156 15.230469 85.4375 13.1875 C 85.707031 11.140625 86.722656 10.566406 86.722656 10.566406 C 86.722656 10.566406 87.738281 11.140625 88.011719 13.1875 C 88.285156 15.230469 86.722656 16.484375 86.722656 16.484375 Z M 85.75 16.589844 C 85.152344 14.902344 83.390625 14.171875 81.203125 14.300781 C 81.203125 14.300781 81.605469 16.292969 84.359375 16.351562 C 84.359375 16.351562 83.066406 15.761719 82.792969 15.117188 C 84.222656 15.285156 85.089844 15.964844 85.75 16.589844 Z M 81.265625 18.105469 C 81.453125 17.9375 81.675781 17.808594 81.902344 17.710938 C 83.628906 16.988281 85.578125 17.863281 86.722656 18.960938 C 87.871094 17.863281 89.816406 16.988281 91.546875 17.710938 C 91.769531 17.808594 91.996094 17.9375 92.183594 18.105469 C 91.015625 18.394531 90.050781 18.253906 89.125 17.867188 C 88.921875 17.925781 88.660156 18.027344 88.40625 18.191406 C 89.449219 18.671875 90.207031 18.929688 91.816406 18.777344 C 93.074219 18.664062 94.011719 18.226562 94.011719 18.226562 C 91.738281 16.164062 89.480469 16.667969 88.089844 17.335938 C 87.707031 17.148438 87.046875 16.949219 86.722656 16.988281 C 86.402344 16.949219 85.746094 17.148438 85.359375 17.335938 C 83.96875 16.667969 81.707031 16.164062 79.4375 18.226562 C 79.4375 18.226562 80.375 18.664062 81.628906 18.777344 C 83.238281 18.929688 84 18.671875 85.042969 18.191406 C 84.785156 18.027344 84.527344 17.925781 84.324219 17.867188 C 83.402344 18.253906 82.433594 18.394531 81.265625 18.105469 Z M 87.402344 17.726562 C 86.972656 18 86.722656 18.226562 86.722656 18.226562 C 86.722656 18.226562 86.472656 18 86.050781 17.726562 C 86.402344 17.566406 86.722656 17.507812 86.722656 17.507812 C 86.722656 17.507812 87.046875 17.566406 87.402344 17.726562 Z M 87.402344 17.726562 "/>
</g>
</g>
</svg>
